<?xml version="1.0" encoding="UTF-8" standalone="no"?>
<svg
   xmlns:dc="http://purl.org/dc/elements/1.1/"
   xmlns:cc="http://creativecommons.org/ns#"
   xmlns:rdf="http://www.w3.org/1999/02/22-rdf-syntax-ns#"
   xmlns:svg="http://www.w3.org/2000/svg"
   xmlns="http://www.w3.org/2000/svg"
   xmlns:sodipodi="http://sodipodi.sourceforge.net/DTD/sodipodi-0.dtd"
   xmlns:inkscape="http://www.inkscape.org/namespaces/inkscape"
   width="32"
   height="32"
   viewBox="0 0 8.4666664 8.466667"
   version="1.1"
   id="svg8"
   inkscape:version="1.0 (4035a4f, 2020-05-01)"
   sodipodi:docname="searchIcon.svg">
  <defs
     id="defs2" />
  <sodipodi:namedview
     id="base"
     pagecolor="#ffffff"
     bordercolor="#666666"
     borderopacity="1.0"
     inkscape:pageopacity="0.0"
     inkscape:pageshadow="2"
     inkscape:zoom="22.627417"
     inkscape:cx="-2.0233495"
     inkscape:cy="26.329384"
     inkscape:document-units="mm"
     inkscape:current-layer="layer1"
     inkscape:document-rotation="0"
     showgrid="false"
     inkscape:snap-global="false"
     units="px"
     inkscape:pagecheckerboard="true"
     showguides="true"
     inkscape:guide-bbox="true"
     inkscape:window-width="3840"
     inkscape:window-height="2129"
     inkscape:window-x="0"
     inkscape:window-y="0"
     inkscape:window-maximized="1" />
  <metadata
     id="metadata5">
    <rdf:RDF>
      <cc:Work
         rdf:about="">
        <dc:format>image/svg+xml</dc:format>
        <dc:type
           rdf:resource="http://purl.org/dc/dcmitype/StillImage" />
        <dc:title />
      </cc:Work>
    </rdf:RDF>
  </metadata>
  <g
     inkscape:label="Layer 1"
     inkscape:groupmode="layer"
     id="layer1">
    <path
       id="path10"
       style="fill:#000000;fill-opacity:0.45734;stroke-width:0.300682;stroke-linecap:round;stroke-dasharray:0.300682, 0.90204899999999999"
       d="m 1.157799,1.1570915 a 2.5972824,2.5972824 0 0 0 -1e-7,3.6726259 2.5972824,2.5972824 0 0 0 3.2211141,0.360297 c 0.014826,0.018988 0.028118,0.038898 0.045607,0.056388 l 2.6953873,2.6953864 c 0.2297317,0.2297317 0.5999052,0.2293171 0.8296369,-4.146e-4 0.2297315,-0.2297315 0.2297316,-0.5994906 0,-0.8292223 L 5.2541575,4.4167646 c -0.017904,-0.017909 -0.03774,-0.032153 -0.057217,-0.047265 A 2.5972824,2.5972824 0 0 0 4.8308392,1.1566771 2.5972824,2.5972824 0 0 0 1.157799,1.1570915 Z M 1.25772,1.3075957 c 0.00821,-0.00833 0.014886,-0.015005 0.023218,-0.023218 a 0.17739277,0.17739277 0 0 0 0.00166,-0.00166 C 1.7305673,0.83474578 2.3605742,0.57456801 2.9941081,0.57456813 c 0.633534,-1.2e-7 1.2627115,0.26017754 1.7106856,0.70815597 0.4479821,0.4479687 0.7085745,1.077561 0.7085742,1.7110949 2e-7,0.633534 -0.2601776,1.2635408 -0.708156,1.711515 C 4.2572381,5.1533121 3.6272312,5.41349 2.9936973,5.4134898 2.3601634,5.4134898 1.730571,5.1528975 1.2825969,4.7049194 0.83867899,4.2610988 0.57778287,3.6389418 0.57319716,3.0112327 0.56861135,2.3835235 0.82033413,1.7578543 1.25772,1.3075957 Z" />
  </g>
</svg>
